<svg xmlns="http://www.w3.org/2000/svg" width="138.349" height="45.274" viewBox="0 0 138.349 45.274">
  <g id="グループ_5896" data-name="グループ 5896" transform="translate(-753.077 -201.05)" style="mix-blend-mode: multiply;isolation: isolate">
    <path id="パス_13639" data-name="パス 13639" d="M779.973,203.245a1.116,1.116,0,0,0-.67.7,5.292,5.292,0,0,0-.182,1.631v14.814a5.29,5.29,0,0,0,.182,1.631,1.116,1.116,0,0,0,.67.7,5.293,5.293,0,0,0,1.568.233v.6q-1.4-.088-3.791-.088-2.563,0-3.82.088v-.6a5.208,5.208,0,0,0,1.559-.233,1.117,1.117,0,0,0,.664-.7,5.3,5.3,0,0,0,.182-1.631V204.411l-7.188,19.29h-.481l-7.523-19.377v15.761a5.566,5.566,0,0,0,.2,1.735,1.385,1.385,0,0,0,.765.838,4.88,4.88,0,0,0,1.743.3v.6q-1.064-.088-3.048-.088-1.78,0-2.77.088v-.6a3.9,3.9,0,0,0,1.538-.3,1.362,1.362,0,0,0,.693-.838,5.973,5.973,0,0,0,.19-1.735V205.578a5.275,5.275,0,0,0-.182-1.631,1.116,1.116,0,0,0-.67-.7,5.31,5.31,0,0,0-1.567-.233v-.6q.976.088,2.77.088,1.574,0,2.551-.088l6.561,17.319,6.415-17.233h1.413q2.391,0,3.792-.088v.6A5.309,5.309,0,0,0,779.973,203.245Z" transform="translate(-3.481 -0.958)" fill="#2a2a44"/>
    <path id="パス_13640" data-name="パス 13640" d="M854.584,222.611v.6q-1.225-.088-3.208-.088-2.552,0-3.821.088v-.6a4.471,4.471,0,0,0,1.626-.277.841.841,0,0,0,.488-.831,4.132,4.132,0,0,0-.349-1.4l-1.836-4.9h-7.2l-1.225,3.161a7.1,7.1,0,0,0-.594,2.449,1.488,1.488,0,0,0,.634,1.355,3.851,3.851,0,0,0,1.961.437v.6q-1.709-.088-3.441-.088-1.341,0-2.23.088v-.6q1.487-.335,2.347-2.595l7.028-18.1h.482l7.276,18.78Q853.243,222.553,854.584,222.611ZM843.927,205.7l-3.427,8.909h6.765Z" transform="translate(-57.767 -0.611)" fill="#2a2a44"/>
    <path id="パス_13641" data-name="パス 13641" d="M920.171,203.245a1.115,1.115,0,0,0-.67.7,5.276,5.276,0,0,0-.182,1.631v14.814a5.273,5.273,0,0,0,.182,1.631,1.115,1.115,0,0,0,.67.7,5.3,5.3,0,0,0,1.567.233v.6q-1.4-.088-3.791-.088-2.563,0-3.82.088v-.6a5.206,5.206,0,0,0,1.559-.233,1.117,1.117,0,0,0,.664-.7,5.291,5.291,0,0,0,.182-1.631V204.411l-7.189,19.29h-.481l-7.523-19.377v15.761a5.571,5.571,0,0,0,.2,1.735,1.384,1.384,0,0,0,.765.838,4.878,4.878,0,0,0,1.743.3v.6q-1.064-.088-3.047-.088-1.779,0-2.77.088v-.6a3.9,3.9,0,0,0,1.538-.3,1.362,1.362,0,0,0,.693-.838,5.973,5.973,0,0,0,.19-1.735V205.578a5.273,5.273,0,0,0-.182-1.631,1.116,1.116,0,0,0-.67-.7,5.308,5.308,0,0,0-1.567-.233v-.6q.976.088,2.77.088,1.575,0,2.551-.088l6.562,17.319,6.415-17.233h1.414q2.391,0,3.791-.088v.6A5.315,5.315,0,0,0,920.171,203.245Z" transform="translate(-101.876 -0.958)" fill="#2a2a44"/>
    <path id="パス_13642" data-name="パス 13642" d="M994.773,222.618v.6q-1.224-.088-3.207-.088-2.552,0-3.82.088v-.6a4.471,4.471,0,0,0,1.626-.277.842.842,0,0,0,.488-.831,4.144,4.144,0,0,0-.349-1.4l-1.838-4.9h-7.2l-1.225,3.165a7.087,7.087,0,0,0-.6,2.449,1.488,1.488,0,0,0,.635,1.355,3.849,3.849,0,0,0,1.961.437v.6q-1.709-.088-3.441-.088-1.341,0-2.231.088v-.6q1.487-.335,2.347-2.595l7.028-18.1h.482l7.276,18.78Q993.433,222.559,994.773,222.618ZM984.114,205.7l-3.425,8.909h6.765Z" transform="translate(-156.153 -0.618)" fill="#2a2a44"/>
    <path id="パス_13643" data-name="パス 13643" d="M1030.209,206.8a2.711,2.711,0,0,0,.671-1.7,1.985,1.985,0,0,0-.088-.627,1.779,1.779,0,0,1-1.108.394,1.9,1.9,0,0,1-1.363-.518,2,2,0,0,1,.007-2.756,1.858,1.858,0,0,1,1.356-.544,1.976,1.976,0,0,1,1.765.948,3.55,3.55,0,0,1,.51,1.969,4.855,4.855,0,0,1-.766,2.689,5.384,5.384,0,0,1-2.311,1.917l-.277-.544A4.047,4.047,0,0,0,1030.209,206.8Z" transform="translate(-192.792 0)" fill="#676767"/>
    <path id="パス_13644" data-name="パス 13644" d="M1051.483,240.318a3.288,3.288,0,0,0,2.81,1.215,3.154,3.154,0,0,0,1.27-.259,2.244,2.244,0,0,0,.969-.8,2.308,2.308,0,0,0,.374-1.347,2,2,0,0,0-.41-1.244,4.135,4.135,0,0,0-1.083-.969q-.674-.43-1.887-1.049a15.588,15.588,0,0,1-1.882-1.115,4.508,4.508,0,0,1-1.218-1.27,3.121,3.121,0,0,1-.467-1.712,2.982,2.982,0,0,1,.552-1.809,3.366,3.366,0,0,1,1.457-1.13,5.541,5.541,0,0,1,3.113-.268,3.4,3.4,0,0,1,.783.27,7.262,7.262,0,0,1,.684.41,1.688,1.688,0,0,0,.726.3.327.327,0,0,0,.3-.228,2.639,2.639,0,0,0,.165-.718h.488q-.1,1.11-.1,3.908h-.488a5.213,5.213,0,0,0-.472-1.8,3.291,3.291,0,0,0-1.14-1.338,3.247,3.247,0,0,0-1.871-.513,3.14,3.14,0,0,0-1.338.276,2.247,2.247,0,0,0-.923.752,1.839,1.839,0,0,0-.331,1.078,1.944,1.944,0,0,0,.627,1.513,7.506,7.506,0,0,0,1.5,1.042q.876.472,1.218.669a20.726,20.726,0,0,1,2.12,1.255,4.938,4.938,0,0,1,1.286,1.27,2.855,2.855,0,0,1,.482,1.643,3.313,3.313,0,0,1-.581,1.975,3.542,3.542,0,0,1-1.571,1.223,5.717,5.717,0,0,1-2.2.41,4.939,4.939,0,0,1-2.9-.788,1.574,1.574,0,0,0-.725-.3.326.326,0,0,0-.3.221,2.594,2.594,0,0,0-.166.71h-.488q.083-1.037.083-4.665h.488A5.908,5.908,0,0,0,1051.483,240.318Z" transform="translate(-208.292 -19.23)" fill="#2a2a44"/>
    <path id="パス_13645" data-name="パス 13645" d="M766.958,306.519q-.145-.358-.421-.358a1.064,1.064,0,0,0-.529.214,13.586,13.586,0,0,1-1.414.887,6.846,6.846,0,0,1-1.478.566,7.318,7.318,0,0,1-1.875.22,8.175,8.175,0,0,1-4.294-1.107,7.346,7.346,0,0,1-2.854-3.215,12.772,12.772,0,0,1,.031-10.04,8.084,8.084,0,0,1,2.907-3.392,7.611,7.611,0,0,1,4.237-1.206,6.99,6.99,0,0,1,2.622.44,9.039,9.039,0,0,1,2.118,1.232.834.834,0,0,0,.5.226q.529,0,.654-1.534h.591q-.1,1.674-.1,5.922h-.592q-.188-1.158-.346-1.8a5.627,5.627,0,0,0-.371-1.088,5.369,5.369,0,0,0-.578-.924,4.812,4.812,0,0,0-1.974-1.509,6.573,6.573,0,0,0-2.578-.5,4.3,4.3,0,0,0-2.93,1.106,7.129,7.129,0,0,0-1.948,3.156,15.029,15.029,0,0,0-.691,4.8,13.726,13.726,0,0,0,.754,4.815,6.838,6.838,0,0,0,2.076,3.055,4.7,4.7,0,0,0,2.993,1.044,6.648,6.648,0,0,0,2.5-.495,4.1,4.1,0,0,0,1.9-1.474,4.53,4.53,0,0,0,.755-1.527,19.692,19.692,0,0,0,.439-2.545h.591q0,4.439.1,6.186h-.591A4.264,4.264,0,0,0,766.958,306.519Z" transform="translate(0 -61.788)" fill="#2a2a44"/>
    <path id="パス_13646" data-name="パス 13646" d="M824.54,308.518a2.79,2.79,0,0,1-1.559.39,2.482,2.482,0,0,1-1.734-.616,4.138,4.138,0,0,1-1.032-2.175l-.566-2.564a16.719,16.719,0,0,0-.572-2.068,2.6,2.6,0,0,0-.818-1.157,2.377,2.377,0,0,0-1.515-.434h-2.451v5.919a4.55,4.55,0,0,0,.157,1.406.962.962,0,0,0,.578.6,4.543,4.543,0,0,0,1.352.2v.516q-1.182-.076-3.269-.076-2.213,0-3.3.076v-.516a4.558,4.558,0,0,0,1.352-.2.963.963,0,0,0,.578-.6,4.55,4.55,0,0,0,.157-1.406V293.041a4.548,4.548,0,0,0-.157-1.406.963.963,0,0,0-.578-.6,4.59,4.59,0,0,0-1.352-.2v-.516q1.081.076,3.144.075,1,0,2.22-.025t1.665-.025a8.821,8.821,0,0,1,3.408.585,4.668,4.668,0,0,1,2.1,1.594,3.921,3.921,0,0,1,.7,2.294,4.82,4.82,0,0,1-.469,2.03,4.727,4.727,0,0,1-1.6,1.836,6.7,6.7,0,0,1-2.935,1.088l.314.05a5.778,5.778,0,0,1,1.848.572,2.947,2.947,0,0,1,1.1,1.05,5.943,5.943,0,0,1,.661,1.773l.641,2.627a8.408,8.408,0,0,0,.335,1.239,1.714,1.714,0,0,0,.4.66.828.828,0,0,0,.584.214,1.1,1.1,0,0,0,.7-.22,4.882,4.882,0,0,0,.7-.761l.39.289A4.678,4.678,0,0,1,824.54,308.518Zm-5.8-9.694a2.974,2.974,0,0,0,1.358-1.484,5.939,5.939,0,0,0,.377-2.238,4.533,4.533,0,0,0-1-3.194,4.287,4.287,0,0,0-3.269-1.081,3.068,3.068,0,0,0-1.205.182,1.014,1.014,0,0,0-.553.648,4.766,4.766,0,0,0-.151,1.383v6.337h1.735a5.557,5.557,0,0,0,2.714-.552Z" transform="translate(-39.822 -62.649)" fill="#2a2a44"/>
    <path id="パス_13647" data-name="パス 13647" d="M873.8,307.73v.516q-1.056-.076-2.766-.076-2.2,0-3.294.076v-.516a3.849,3.849,0,0,0,1.4-.239.726.726,0,0,0,.421-.716,3.568,3.568,0,0,0-.3-1.205l-1.583-4.223h-6.211l-1.056,2.729a6.117,6.117,0,0,0-.516,2.112,1.282,1.282,0,0,0,.547,1.168,3.317,3.317,0,0,0,1.691.377v.516q-1.473-.076-2.967-.076-1.157,0-1.923.076v-.516q1.282-.289,2.024-2.237l6.06-15.6h.415l6.274,16.195Q872.644,307.68,873.8,307.73Zm-9.191-14.585-2.955,7.682h5.834Z" transform="translate(-73.107 -62.351)" fill="#2a2a44"/>
    <path id="パス_13648" data-name="パス 13648" d="M916.281,290.381q3.784,0,5.381-.075-.176,1.836-.176,3.294,0,1.3.075,2.113h-.591a15.26,15.26,0,0,0-.516-2.961,2.418,2.418,0,0,0-1.088-1.406A4.887,4.887,0,0,0,917,290.9h-1.622a4.353,4.353,0,0,0-1.352.151.924.924,0,0,0-.579.585,4.477,4.477,0,0,0-.157,1.4v6.337h1.886a1.79,1.79,0,0,0,1.723-.773,4.368,4.368,0,0,0,.528-1.578q.1-.8.139-1.043h.591q-.088,1.257-.088,2.427l.012,1.219q0,1.357.163,3.659h-.6c-.017-.117-.067-.536-.145-1.245a2.5,2.5,0,0,0-.7-1.607,2.284,2.284,0,0,0-1.622-.541h-1.886v5.915a3.609,3.609,0,0,0,.2,1.406,1.114,1.114,0,0,0,.729.6,6.947,6.947,0,0,0,1.674.2v.516q-1.333-.076-3.785-.076-2.21,0-3.294.076v-.516a4.562,4.562,0,0,0,1.352-.2.964.964,0,0,0,.578-.6,4.538,4.538,0,0,0,.157-1.406V293.034a4.536,4.536,0,0,0-.157-1.406.964.964,0,0,0-.578-.6,4.587,4.587,0,0,0-1.352-.2v-.516Q911.34,290.382,916.281,290.381Z" transform="translate(-109.3 -62.643)" fill="#2a2a44"/>
    <path id="パス_13649" data-name="パス 13649" d="M954.866,293.6a31.579,31.579,0,0,0-.189-3.294q2.137.076,7.267.075,5.09,0,7.23-.075Q969,292.142,969,293.6q0,1.3.075,2.113h-.591a15.6,15.6,0,0,0-.509-2.961,2.389,2.389,0,0,0-1.081-1.406,4.887,4.887,0,0,0-2.37-.446h-1.4v14.646a4.46,4.46,0,0,0,.2,1.565,1.171,1.171,0,0,0,.729.686,5.975,5.975,0,0,0,1.674.226v.516q-1.358-.076-3.785-.076-2.578,0-3.809.076v-.516a5.974,5.974,0,0,0,1.674-.226,1.172,1.172,0,0,0,.729-.686,4.474,4.474,0,0,0,.2-1.565V290.9h-1.4a4.888,4.888,0,0,0-2.37.446,2.392,2.392,0,0,0-1.081,1.406,15.6,15.6,0,0,0-.509,2.961h-.591Q954.866,294.9,954.866,293.6Z" transform="translate(-143.488 -62.643)" fill="#2a2a44"/>
    <path id="パス_13650" data-name="パス 13650" d="M1011.941,306.086a3.844,3.844,0,0,0,3.408,1.616,3.742,3.742,0,0,0,1.64-.365,2.894,2.894,0,0,0,1.233-1.138,3.652,3.652,0,0,0,.469-1.93,3.325,3.325,0,0,0-.482-1.778,5.555,5.555,0,0,0-1.314-1.44,21.834,21.834,0,0,0-2.21-1.484,24.167,24.167,0,0,1-2.465-1.647,6.193,6.193,0,0,1-1.528-1.741,4.606,4.606,0,0,1-.6-2.383,4.4,4.4,0,0,1,.657-2.465,4.062,4.062,0,0,1,1.761-1.5,5.808,5.808,0,0,1,2.42-.5,6.171,6.171,0,0,1,1.365.134,4.112,4.112,0,0,1,.949.327,8.667,8.667,0,0,1,.83.5,1.907,1.907,0,0,0,.88.365.4.4,0,0,0,.364-.268,3.133,3.133,0,0,0,.2-.861h.591q-.127,1.509-.126,5.256h-.592a7.775,7.775,0,0,0-.571-2.439,4.391,4.391,0,0,0-1.383-1.816,3.626,3.626,0,0,0-2.27-.7,3.433,3.433,0,0,0-1.622.377,2.781,2.781,0,0,0-1.119,1.056,3,3,0,0,0-.4,1.559,3.069,3.069,0,0,0,.842,2.251,10.192,10.192,0,0,0,1.968,1.54l1.515.924a29.415,29.415,0,0,1,2.565,1.767,6.044,6.044,0,0,1,1.509,1.735,4.532,4.532,0,0,1,.566,2.294,4.752,4.752,0,0,1-.729,2.684,4.514,4.514,0,0,1-1.968,1.653,6.6,6.6,0,0,1-6.3-.4,1.915,1.915,0,0,0-.88-.364.4.4,0,0,0-.365.268,3.162,3.162,0,0,0-.2.861h-.591q.1-1.407.1-6.174h.591A8.372,8.372,0,0,0,1011.941,306.086Z" transform="translate(-180.292 -61.959)" fill="#2a2a44"/>
    <path id="パス_13651" data-name="パス 13651" d="M1066.94,291.029a.961.961,0,0,0-.578.6,4.559,4.559,0,0,0-.157,1.406v12.775a4.561,4.561,0,0,0,.157,1.406.96.96,0,0,0,.578.6,4.553,4.553,0,0,0,1.352.2v.516q-1.071-.076-3.294-.076-2.062,0-3.269.076v-.516a4.562,4.562,0,0,0,1.351-.2.96.96,0,0,0,.578-.6,4.553,4.553,0,0,0,.157-1.406v-6.184h-8.372v6.184a4.556,4.556,0,0,0,.157,1.406.962.962,0,0,0,.579.6,4.539,4.539,0,0,0,1.351.2v.516q-1.182-.076-3.269-.076-2.213,0-3.294.076v-.516a4.564,4.564,0,0,0,1.352-.2.962.962,0,0,0,.578-.6,4.528,4.528,0,0,0,.158-1.406V293.041a4.526,4.526,0,0,0-.158-1.406.962.962,0,0,0-.578-.6,4.585,4.585,0,0,0-1.352-.2v-.516q1.072.076,3.294.075,2.087,0,3.269-.075v.516a4.574,4.574,0,0,0-1.351.2.962.962,0,0,0-.579.6,4.555,4.555,0,0,0-.157,1.406v6.075h8.372v-6.075a4.552,4.552,0,0,0-.157-1.406.96.96,0,0,0-.578-.6,4.583,4.583,0,0,0-1.351-.2v-.516q1.206.076,3.269.075,2.21,0,3.294-.075v.516A4.581,4.581,0,0,0,1066.94,291.029Z" transform="translate(-209.069 -62.649)" fill="#2a2a44"/>
    <path id="パス_13652" data-name="パス 13652" d="M1125.926,290.193a7.351,7.351,0,0,1,2.855,3.215,12.766,12.766,0,0,1-.031,10.04,8.091,8.091,0,0,1-2.9,3.395,7.616,7.616,0,0,1-4.237,1.206,8.176,8.176,0,0,1-4.294-1.107,7.346,7.346,0,0,1-2.854-3.215,12.769,12.769,0,0,1,.031-10.04,8.085,8.085,0,0,1,2.9-3.392,7.611,7.611,0,0,1,4.237-1.205A8.177,8.177,0,0,1,1125.926,290.193Zm-7.3.51a7.377,7.377,0,0,0-1.936,3.206,15,15,0,0,0-.679,4.708,13.538,13.538,0,0,0,.754,4.715,7.387,7.387,0,0,0,2.056,3.143,4.346,4.346,0,0,0,2.885,1.107,4.155,4.155,0,0,0,2.9-1.151,7.411,7.411,0,0,0,1.929-3.206,14.988,14.988,0,0,0,.679-4.709,13.533,13.533,0,0,0-.755-4.715,7.419,7.419,0,0,0-2.049-3.143,4.328,4.328,0,0,0-2.88-1.106,4.173,4.173,0,0,0-2.9,1.151Z" transform="translate(-252.917 -61.788)" fill="#2a2a44"/>
    <path id="パス_13653" data-name="パス 13653" d="M1177.145,305.813a3.618,3.618,0,0,0,.2,1.406,1.115,1.115,0,0,0,.729.6,6.949,6.949,0,0,0,1.675.2v.516q-1.333-.076-3.785-.076-2.213,0-3.295.076v-.516a4.564,4.564,0,0,0,1.352-.2.962.962,0,0,0,.578-.6,4.553,4.553,0,0,0,.157-1.406V293.041a4.552,4.552,0,0,0-.157-1.406.963.963,0,0,0-.578-.6,4.585,4.585,0,0,0-1.352-.2v-.516q1.072.076,3.143.075,1,0,2.22-.025t1.665-.025a8.236,8.236,0,0,1,3.42.635,4.6,4.6,0,0,1,2.094,1.779,5.018,5.018,0,0,1,.7,2.666,6.2,6.2,0,0,1-.628,2.716,5.069,5.069,0,0,1-2.143,2.175,8.028,8.028,0,0,1-4,.871h-1.987Zm5.218-6.5a6.079,6.079,0,0,0,.968-3.621,7.414,7.414,0,0,0-.428-2.728,3.109,3.109,0,0,0-1.364-1.6,5,5,0,0,0-2.484-.536,3.066,3.066,0,0,0-1.205.182,1.011,1.011,0,0,0-.553.648,4.742,4.742,0,0,0-.151,1.383v7.623h1.735q2.513,0,3.482-1.344Z" transform="translate(-294.485 -62.649)" fill="#2a2a44"/>
  </g>
</svg>
